<mxfile host="app.diagrams.net" modified="2023-05-26T08:39:34.568Z" agent="Mozilla/5.0 (Windows NT 10.0; Win64; x64) AppleWebKit/537.36 (KHTML, like Gecko) Chrome/113.0.0.0 Safari/537.36" etag="7DHixHDNKtTEU9AdaV1e" version="21.3.4" type="github">
  <diagram name="第 1 页" id="8ePfgUnNjt7sfL_Q9ex-">
    <mxGraphModel dx="2234" dy="838" grid="0" gridSize="10" guides="1" tooltips="1" connect="1" arrows="1" fold="1" page="0" pageScale="1" pageWidth="827" pageHeight="1169" math="0" shadow="0">
      <root>
        <mxCell id="0" />
        <mxCell id="1" parent="0" />
        <mxCell id="dDw6INjENduWIAmaYxE8-1" value="用户" style="ellipse;whiteSpace=wrap;html=1;" vertex="1" parent="1">
          <mxGeometry x="-936" y="-306.5" width="57" height="45" as="geometry" />
        </mxCell>
        <mxCell id="dDw6INjENduWIAmaYxE8-3" value="管理员" style="ellipse;whiteSpace=wrap;html=1;" vertex="1" parent="1">
          <mxGeometry x="-337" y="-306.5" width="57" height="45" as="geometry" />
        </mxCell>
        <mxCell id="dDw6INjENduWIAmaYxE8-4" value="社团负责人" style="ellipse;whiteSpace=wrap;html=1;" vertex="1" parent="1">
          <mxGeometry x="-609" y="-115" width="57" height="45" as="geometry" />
        </mxCell>
        <mxCell id="dDw6INjENduWIAmaYxE8-5" value="p" style="swimlane;whiteSpace=wrap;html=1;" vertex="1" parent="1">
          <mxGeometry x="-628" y="-315" width="113" height="56" as="geometry">
            <mxRectangle x="-682" y="-312" width="137" height="26" as="alternateBounds" />
          </mxGeometry>
        </mxCell>
        <mxCell id="dDw6INjENduWIAmaYxE8-7" value="学生社团管理系统" style="text;html=1;align=center;verticalAlign=middle;resizable=0;points=[];autosize=1;strokeColor=none;fillColor=none;" vertex="1" parent="dDw6INjENduWIAmaYxE8-5">
          <mxGeometry x="-1" y="30" width="114" height="26" as="geometry" />
        </mxCell>
        <mxCell id="dDw6INjENduWIAmaYxE8-8" value="" style="endArrow=classic;html=1;rounded=0;exitX=1;exitY=0;exitDx=0;exitDy=0;entryX=0;entryY=0.25;entryDx=0;entryDy=0;" edge="1" parent="1" source="dDw6INjENduWIAmaYxE8-1" target="dDw6INjENduWIAmaYxE8-5">
          <mxGeometry width="50" height="50" relative="1" as="geometry">
            <mxPoint x="-879" y="-296" as="sourcePoint" />
            <mxPoint x="-682" y="-296" as="targetPoint" />
          </mxGeometry>
        </mxCell>
        <mxCell id="dDw6INjENduWIAmaYxE8-9" value="注册表单，登录表单，创建社团表单&lt;br&gt;发表评论，加入社团，参加活动" style="text;html=1;align=center;verticalAlign=middle;resizable=0;points=[];autosize=1;strokeColor=none;fillColor=none;" vertex="1" parent="1">
          <mxGeometry x="-862" y="-340" width="210" height="41" as="geometry" />
        </mxCell>
        <mxCell id="dDw6INjENduWIAmaYxE8-10" value="" style="endArrow=classic;html=1;rounded=0;exitX=0.003;exitY=0.359;exitDx=0;exitDy=0;exitPerimeter=0;entryX=0.971;entryY=0.678;entryDx=0;entryDy=0;entryPerimeter=0;" edge="1" parent="1" source="dDw6INjENduWIAmaYxE8-7" target="dDw6INjENduWIAmaYxE8-1">
          <mxGeometry width="50" height="50" relative="1" as="geometry">
            <mxPoint x="-919" y="-170" as="sourcePoint" />
            <mxPoint x="-869" y="-220" as="targetPoint" />
          </mxGeometry>
        </mxCell>
        <mxCell id="dDw6INjENduWIAmaYxE8-11" value="新闻列表，账号已被注册，账号或密码错误&lt;br&gt;社团重复创建，非社团成员，不可重复加入" style="text;html=1;align=center;verticalAlign=middle;resizable=0;points=[];autosize=1;strokeColor=none;fillColor=none;" vertex="1" parent="1">
          <mxGeometry x="-880" y="-270" width="246" height="41" as="geometry" />
        </mxCell>
        <mxCell id="dDw6INjENduWIAmaYxE8-12" value="" style="endArrow=classic;html=1;rounded=0;exitX=1;exitY=0.25;exitDx=0;exitDy=0;entryX=0;entryY=0;entryDx=0;entryDy=0;" edge="1" parent="1" source="dDw6INjENduWIAmaYxE8-5" target="dDw6INjENduWIAmaYxE8-3">
          <mxGeometry width="50" height="50" relative="1" as="geometry">
            <mxPoint x="-807" y="-114" as="sourcePoint" />
            <mxPoint x="-757" y="-164" as="targetPoint" />
          </mxGeometry>
        </mxCell>
        <mxCell id="dDw6INjENduWIAmaYxE8-13" value="社团列表，用户列表，新闻列表" style="text;html=1;align=center;verticalAlign=middle;resizable=0;points=[];autosize=1;strokeColor=none;fillColor=none;" vertex="1" parent="1">
          <mxGeometry x="-523" y="-329" width="186" height="26" as="geometry" />
        </mxCell>
        <mxCell id="dDw6INjENduWIAmaYxE8-14" value="" style="endArrow=classic;html=1;rounded=0;exitX=0.006;exitY=0.707;exitDx=0;exitDy=0;entryX=1.003;entryY=0.397;entryDx=0;entryDy=0;entryPerimeter=0;exitPerimeter=0;" edge="1" parent="1">
          <mxGeometry width="50" height="50" relative="1" as="geometry">
            <mxPoint x="-336.6579999999999" y="-277.68499999999995" as="sourcePoint" />
            <mxPoint x="-514.6579999999999" y="-277.678" as="targetPoint" />
          </mxGeometry>
        </mxCell>
        <mxCell id="dDw6INjENduWIAmaYxE8-15" value="发布新闻" style="text;html=1;align=center;verticalAlign=middle;resizable=0;points=[];autosize=1;strokeColor=none;fillColor=none;" vertex="1" parent="1">
          <mxGeometry x="-497" y="-276" width="66" height="26" as="geometry" />
        </mxCell>
        <mxCell id="dDw6INjENduWIAmaYxE8-16" value="" style="endArrow=classic;html=1;rounded=0;exitX=0.237;exitY=1.038;exitDx=0;exitDy=0;exitPerimeter=0;entryX=0.345;entryY=0.067;entryDx=0;entryDy=0;entryPerimeter=0;" edge="1" parent="1" target="dDw6INjENduWIAmaYxE8-4">
          <mxGeometry width="50" height="50" relative="1" as="geometry">
            <mxPoint x="-590.982" y="-258.01199999999994" as="sourcePoint" />
            <mxPoint x="-591" y="-117" as="targetPoint" />
          </mxGeometry>
        </mxCell>
        <mxCell id="dDw6INjENduWIAmaYxE8-17" value="成员列表，活动列表" style="text;html=1;align=center;verticalAlign=middle;resizable=0;points=[];autosize=1;strokeColor=none;fillColor=none;" vertex="1" parent="1">
          <mxGeometry x="-715" y="-192" width="126" height="26" as="geometry" />
        </mxCell>
        <mxCell id="dDw6INjENduWIAmaYxE8-18" value="" style="endArrow=classic;html=1;rounded=0;exitX=0.696;exitY=0.022;exitDx=0;exitDy=0;exitPerimeter=0;" edge="1" parent="1" source="dDw6INjENduWIAmaYxE8-4" target="dDw6INjENduWIAmaYxE8-7">
          <mxGeometry width="50" height="50" relative="1" as="geometry">
            <mxPoint x="-554" y="-124" as="sourcePoint" />
            <mxPoint x="-504" y="-174" as="targetPoint" />
          </mxGeometry>
        </mxCell>
        <mxCell id="dDw6INjENduWIAmaYxE8-19" value="发布活动" style="text;html=1;align=center;verticalAlign=middle;resizable=0;points=[];autosize=1;strokeColor=none;fillColor=none;" vertex="1" parent="1">
          <mxGeometry x="-579" y="-192" width="66" height="26" as="geometry" />
        </mxCell>
      </root>
    </mxGraphModel>
  </diagram>
</mxfile>
